<?xml version="1.0" standalone="no"?>
<!DOCTYPE svg PUBLIC "-//W3C//DTD SVG 20010904//EN"
 "http://www.w3.org/TR/2001/REC-SVG-20010904/DTD/svg10.dtd">
<svg version="1.0" xmlns="http://www.w3.org/2000/svg"
 width="233.000000pt" height="232.000000pt" viewBox="0 0 233.000000 232.000000"
 preserveAspectRatio="xMidYMid meet">

<g transform="translate(0.000000,232.000000) scale(0.100000,-0.100000)"
fill="#000000" stroke="none">
<path id="svg" d="M1055 2313 c-419 -49 -773 -299 -945 -665 -80 -172 -116 -354 -107
-548 6 -136 25 -228 70 -349 108 -288 348 -540 624 -655 315 -132 673 -121
979 28 425 209 677 628 651 1085 -10 179 -45 311 -123 466 -120 236 -296 409
-534 524 -201 97 -420 138 -615 114z m255 -148 c393 -60 733 -361 839 -743
116 -419 -54 -866 -423 -1109 -446 -294 -1031 -199 -1365 221 -233 293 -283
698 -127 1040 75 165 215 327 369 430 222 148 452 200 707 161z"/>
<path d="M1130 1926 c-19 -17 -375 -254 -490 -325 -47 -29 -91 -60 -97 -69
-14 -17 -17 -508 -5 -672 l7 -85 55 -36 c457 -304 562 -369 580 -359 21 11
428 277 535 350 l70 47 3 382 2 381 -75 48 c-42 26 -180 116 -308 199 -128 84
-239 153 -247 153 -9 0 -22 -6 -30 -14z m383 -595 l57 -55 0 -134 0 -133 -72
-80 -73 -79 -127 0 -126 0 -84 93 c-46 50 -96 109 -112 129 -15 21 -32 35 -37
32 -5 -3 -9 -61 -9 -130 l0 -124 -65 0 -65 0 0 275 0 275 65 0 65 0 0 -120 c0
-80 4 -120 11 -120 6 0 63 54 127 121 l117 120 68 -3 67 -3 -119 -139 -119
-139 70 -86 c132 -160 148 -177 158 -161 6 8 10 17 10 20 0 3 29 41 65 85 l65
80 0 145 c-1 107 -4 152 -15 170 -33 59 -14 49 78 -39z"/>
</g>
</svg>
